<svg xmlns="http://www.w3.org/2000/svg" xmlns:xlink="http://www.w3.org/1999/xlink" viewBox="0 0 540 288"><defs><clipPath id="ed02a516-b28b-43d0-b0db-f6cedc5f65d8"><rect width="540" height="288" fill="#eef8fb"/></clipPath><linearGradient id="a4e8e265-0802-41e0-b4ff-c43fffe80519" x1="-13.46" y1="273.44" x2="49.41" y2="135.28" gradientUnits="userSpaceOnUse"><stop offset="0" stop-color="#0096ff"/><stop offset="0.63" stop-color="#36c2ff"/><stop offset="1" stop-color="#50d7ff"/></linearGradient><linearGradient id="a2977597-1704-41be-a874-31f69d587867" x1="41.91" y1="298.64" x2="104.78" y2="160.48" xlink:href="#a4e8e265-0802-41e0-b4ff-c43fffe80519"/><linearGradient id="b940e138-4af0-43a3-aa74-69276102d4c3" x1="62.79" y1="308.14" x2="125.66" y2="169.98" xlink:href="#a4e8e265-0802-41e0-b4ff-c43fffe80519"/><linearGradient id="f72bf87c-dc59-4f55-a397-fe0fb988bd5d" x1="12.43" y1="285.22" x2="75.3" y2="147.07" xlink:href="#a4e8e265-0802-41e0-b4ff-c43fffe80519"/><linearGradient id="a4b48150-aa74-4f9c-9d86-e7db411542bd" x1="39.68" y1="297.63" x2="102.55" y2="159.47" xlink:href="#a4e8e265-0802-41e0-b4ff-c43fffe80519"/><linearGradient id="fda6c420-0a03-4c73-a6fe-481e6ec7a293" x1="209.08" y1="374.72" x2="271.96" y2="236.56" xlink:href="#a4e8e265-0802-41e0-b4ff-c43fffe80519"/><linearGradient id="a95831b4-5be7-426a-b2c0-a6c846055c8c" x1="32.99" y1="294.58" x2="95.86" y2="156.42" xlink:href="#a4e8e265-0802-41e0-b4ff-c43fffe80519"/><linearGradient id="bf48b4ea-7c51-4335-a9bc-78f5b2fed0ac" x1="212.7" y1="376.37" x2="275.57" y2="238.21" xlink:href="#a4e8e265-0802-41e0-b4ff-c43fffe80519"/><linearGradient id="f263eb08-0ce2-453f-b871-005aee67a61f" x1="103.88" y1="326.84" x2="166.75" y2="188.68" xlink:href="#a4e8e265-0802-41e0-b4ff-c43fffe80519"/><linearGradient id="a6692a3e-3aba-45fa-a378-3d8d084d8b71" x1="190.62" y1="366.32" x2="253.49" y2="228.16" xlink:href="#a4e8e265-0802-41e0-b4ff-c43fffe80519"/><linearGradient id="a87c5082-1181-46dd-9415-0b8252f9e15b" x1="120.8" y1="334.54" x2="183.68" y2="196.39" xlink:href="#a4e8e265-0802-41e0-b4ff-c43fffe80519"/><linearGradient id="be2073b9-f870-4829-90bb-d31581c22561" x1="150.15" y1="347.9" x2="213.02" y2="209.74" xlink:href="#a4e8e265-0802-41e0-b4ff-c43fffe80519"/><linearGradient id="b02baa2f-1bb8-4c40-8b35-7495ef7ce509" x1="174.91" y1="359.17" x2="237.78" y2="221.01" xlink:href="#a4e8e265-0802-41e0-b4ff-c43fffe80519"/><linearGradient id="ba8d5b33-f40d-43e4-a6f3-a004d25e1efb" x1="25.89" y1="291.35" x2="88.77" y2="153.19" xlink:href="#a4e8e265-0802-41e0-b4ff-c43fffe80519"/><linearGradient id="e27a53ce-3cf4-46a6-bf45-91bd23a9b894" x1="132.59" y1="339.91" x2="195.46" y2="201.75" xlink:href="#a4e8e265-0802-41e0-b4ff-c43fffe80519"/><linearGradient id="b126a730-ed68-4619-89c5-192a1afa825f" x1="94.17" y1="322.42" x2="157.05" y2="184.27" xlink:href="#a4e8e265-0802-41e0-b4ff-c43fffe80519"/><linearGradient id="f0192bea-c379-4987-8cad-595ca6d31f55" x1="84.27" y1="317.92" x2="147.15" y2="179.76" xlink:href="#a4e8e265-0802-41e0-b4ff-c43fffe80519"/><linearGradient id="efef37e5-c252-4b9e-8ceb-c1b4f01e3c8c" x1="-18.46" y1="271.17" x2="44.41" y2="133.01" xlink:href="#a4e8e265-0802-41e0-b4ff-c43fffe80519"/><linearGradient id="f3920496-8b10-4162-a41f-c3de69fc4adb" x1="26.51" y1="291.63" x2="89.38" y2="153.47" xlink:href="#a4e8e265-0802-41e0-b4ff-c43fffe80519"/><linearGradient id="a6c2d57b-89c3-4ae4-9522-0d9907fad4fa" x1="38.24" y1="296.97" x2="101.11" y2="158.81" xlink:href="#a4e8e265-0802-41e0-b4ff-c43fffe80519"/><linearGradient id="a540b16d-b635-462a-8e74-1519b46fff26" x1="105.43" y1="327.55" x2="168.3" y2="189.39" xlink:href="#a4e8e265-0802-41e0-b4ff-c43fffe80519"/><linearGradient id="a08b2a99-4f4d-4863-ac5e-533d3829f0b2" x1="71.68" y1="312.19" x2="134.55" y2="174.03" xlink:href="#a4e8e265-0802-41e0-b4ff-c43fffe80519"/><linearGradient id="bbc54d9a-9561-4657-b234-d4e415b70358" x1="165.95" y1="355.09" x2="228.82" y2="216.93" xlink:href="#a4e8e265-0802-41e0-b4ff-c43fffe80519"/><linearGradient id="ba1f2b3a-3c42-4380-a060-1a9f1db9ee41" x1="-3.21" y1="278.1" x2="59.66" y2="139.95" xlink:href="#a4e8e265-0802-41e0-b4ff-c43fffe80519"/><linearGradient id="b53983ea-2534-4242-bf81-6ac9d17e1365" x1="146.48" y1="346.23" x2="209.36" y2="208.07" xlink:href="#a4e8e265-0802-41e0-b4ff-c43fffe80519"/><linearGradient id="b3b69527-2d34-4ed0-bc97-868b53a943b4" x1="222.76" y1="380.94" x2="285.64" y2="242.79" xlink:href="#a4e8e265-0802-41e0-b4ff-c43fffe80519"/><linearGradient id="faa00412-c808-4187-88b6-477b18dcec4f" x1="240.99" y1="389.24" x2="303.86" y2="251.08" xlink:href="#a4e8e265-0802-41e0-b4ff-c43fffe80519"/><linearGradient id="e2bd2003-1039-42b4-8ad0-efa3c41b9ce3" x1="12.01" y1="285.03" x2="74.88" y2="146.87" xlink:href="#a4e8e265-0802-41e0-b4ff-c43fffe80519"/><linearGradient id="ea0a8fbf-df29-494b-82d8-9768a4efb49c" x1="-35.65" y1="263.34" x2="27.22" y2="125.19" xlink:href="#a4e8e265-0802-41e0-b4ff-c43fffe80519"/><linearGradient id="b362f3d8-801f-4611-84b9-c5161595e01c" x1="50.49" y1="302.55" x2="113.37" y2="164.39" xlink:href="#a4e8e265-0802-41e0-b4ff-c43fffe80519"/><linearGradient id="b6d18408-6ef0-4532-97ba-614440699982" x1="181.51" y1="362.17" x2="244.38" y2="224.01" xlink:href="#a4e8e265-0802-41e0-b4ff-c43fffe80519"/><linearGradient id="a25f4c1c-1d0a-4604-ae58-6e2bbb54af55" x1="86.16" y1="318.78" x2="149.04" y2="180.62" xlink:href="#a4e8e265-0802-41e0-b4ff-c43fffe80519"/><linearGradient id="fc91cec9-a5e0-43de-8645-bdeae6b89fc1" x1="197.51" y1="369.45" x2="260.39" y2="231.3" xlink:href="#a4e8e265-0802-41e0-b4ff-c43fffe80519"/><linearGradient id="a79dff7d-9d0e-43ce-9366-2895bb2f6165" x1="106.8" y1="328.17" x2="169.68" y2="190.02" xlink:href="#a4e8e265-0802-41e0-b4ff-c43fffe80519"/><linearGradient id="b26b67e8-5d2e-412a-a579-edec73c4650c" x1="5.33" y1="281.99" x2="68.21" y2="143.84" xlink:href="#a4e8e265-0802-41e0-b4ff-c43fffe80519"/><linearGradient id="b316714c-cd11-4c28-a681-fcdc023ea3b4" x1="96.17" y1="323.33" x2="159.04" y2="185.17" xlink:href="#a4e8e265-0802-41e0-b4ff-c43fffe80519"/><linearGradient id="af9a0568-0959-4981-a604-cfbca78fdbad" x1="56.79" y1="305.41" x2="119.66" y2="167.25" xlink:href="#a4e8e265-0802-41e0-b4ff-c43fffe80519"/><linearGradient id="bac917fa-4ef4-493e-b1f4-4626b7b0a808" x1="34.85" y1="295.42" x2="97.72" y2="157.27" xlink:href="#a4e8e265-0802-41e0-b4ff-c43fffe80519"/><linearGradient id="a841fe2c-1378-455a-bc20-393c46dd6df9" x1="51.12" y1="302.83" x2="113.99" y2="164.67" xlink:href="#a4e8e265-0802-41e0-b4ff-c43fffe80519"/><linearGradient id="b59f40ac-c9d4-4bc5-ae5f-0c1c97e915fe" x1="238.62" y1="388.16" x2="301.49" y2="250" xlink:href="#a4e8e265-0802-41e0-b4ff-c43fffe80519"/><linearGradient id="b84a854e-9a79-46d1-8d14-a1680336f39e" x1="3.17" y1="281.01" x2="66.04" y2="142.85" xlink:href="#a4e8e265-0802-41e0-b4ff-c43fffe80519"/><linearGradient id="b2a07c2b-0054-4c5b-961d-0d17eceee2e9" x1="66.53" y1="309.84" x2="129.4" y2="171.69" xlink:href="#a4e8e265-0802-41e0-b4ff-c43fffe80519"/><linearGradient id="ec6e7946-5833-4666-9511-eeb7bf6ba198" x1="-3.39" y1="278.02" x2="59.48" y2="139.87" xlink:href="#a4e8e265-0802-41e0-b4ff-c43fffe80519"/><linearGradient id="b9499688-f0e8-43ca-a969-b6bf9ae70aed" x1="163.7" y1="354.07" x2="226.58" y2="215.91" xlink:href="#a4e8e265-0802-41e0-b4ff-c43fffe80519"/><linearGradient id="b6bfb2e4-438b-4d2e-aa14-7e425bc04b70" x1="137.2" y1="342.01" x2="200.08" y2="203.85" xlink:href="#a4e8e265-0802-41e0-b4ff-c43fffe80519"/><linearGradient id="a1f64365-811f-4ba8-85c0-abec92d770a4" x1="-19.45" y1="270.71" x2="43.42" y2="132.56" xlink:href="#a4e8e265-0802-41e0-b4ff-c43fffe80519"/><linearGradient id="f76d686e-025d-40be-ab64-54065bc55d99" x1="119.38" y1="333.89" x2="182.25" y2="195.74" xlink:href="#a4e8e265-0802-41e0-b4ff-c43fffe80519"/><linearGradient id="e56b8281-399f-4bb8-a0b2-9766b92b103e" x1="72.59" y1="312.6" x2="135.46" y2="174.44" xlink:href="#a4e8e265-0802-41e0-b4ff-c43fffe80519"/><linearGradient id="bc3f19f0-d26a-47ca-a17d-3e7b78829337" x1="114.51" y1="331.68" x2="177.38" y2="193.52" xlink:href="#a4e8e265-0802-41e0-b4ff-c43fffe80519"/><linearGradient id="f7d07d33-29db-4fb3-9b20-823f5ac47930" x1="157.03" y1="351.03" x2="219.91" y2="212.87" xlink:href="#a4e8e265-0802-41e0-b4ff-c43fffe80519"/><linearGradient id="aa7aed0d-77f1-4467-8d45-3a966fab9bcb" x1="261.84" y1="398.72" x2="324.71" y2="260.57" xlink:href="#a4e8e265-0802-41e0-b4ff-c43fffe80519"/><linearGradient id="ab26400b-aade-46bb-b157-df650da3894e" x1="94.52" y1="322.58" x2="157.39" y2="184.42" xlink:href="#a4e8e265-0802-41e0-b4ff-c43fffe80519"/><linearGradient id="b15ee711-7dfa-4f6f-b414-049d198c9ac6" x1="69.78" y1="311.32" x2="132.65" y2="173.17" xlink:href="#a4e8e265-0802-41e0-b4ff-c43fffe80519"/><linearGradient id="b48b2fee-880f-480e-b25f-6dfe691a30bf" x1="284.56" y1="409.06" x2="347.43" y2="270.91" xlink:href="#a4e8e265-0802-41e0-b4ff-c43fffe80519"/><linearGradient id="ab4ceb91-4fbb-4f66-86b0-dfda365c5aab" x1="192.93" y1="367.37" x2="255.81" y2="229.21" xlink:href="#a4e8e265-0802-41e0-b4ff-c43fffe80519"/><linearGradient id="f1d82aef-386d-4483-a4c3-188973bb08d0" x1="142.83" y1="344.57" x2="205.7" y2="206.41" xlink:href="#a4e8e265-0802-41e0-b4ff-c43fffe80519"/><linearGradient id="b084cbc9-0f58-4b33-824f-e5e0e93c40f2" x1="258.48" y1="397.19" x2="321.35" y2="259.04" xlink:href="#a4e8e265-0802-41e0-b4ff-c43fffe80519"/><linearGradient id="bc4d6c7c-5b9c-4a0f-b0a6-08985e4210f5" x1="2.31" y1="280.62" x2="65.18" y2="142.46" xlink:href="#a4e8e265-0802-41e0-b4ff-c43fffe80519"/><linearGradient id="e2661f9e-ca31-4af7-9a1c-a07e832a7555" x1="22.09" y1="289.63" x2="84.97" y2="151.46" xlink:href="#a4e8e265-0802-41e0-b4ff-c43fffe80519"/><linearGradient id="e6ea1bd1-9a61-40ab-aac5-8dbf276da0fe" x1="16.41" y1="287.03" x2="79.28" y2="148.88" xlink:href="#a4e8e265-0802-41e0-b4ff-c43fffe80519"/><linearGradient id="aa1b4e2d-d29c-42e9-92ba-0cec22924bd8" x1="134.77" y1="340.89" x2="197.64" y2="202.74" xlink:href="#a4e8e265-0802-41e0-b4ff-c43fffe80519"/><linearGradient id="f1f7826a-5ce5-44eb-b610-1caeadb53308" x1="-13.21" y1="273.55" x2="49.66" y2="135.4" xlink:href="#a4e8e265-0802-41e0-b4ff-c43fffe80519"/><linearGradient id="bcf34987-4031-4b54-ba93-62364f0e9d05" x1="225.28" y1="382.09" x2="288.15" y2="243.93" xlink:href="#a4e8e265-0802-41e0-b4ff-c43fffe80519"/><linearGradient id="acb9501e-f18b-4fbc-8532-3829085c1c9c" x1="12.31" y1="285.17" x2="75.18" y2="147.01" xlink:href="#a4e8e265-0802-41e0-b4ff-c43fffe80519"/><linearGradient id="e0ffc984-c6af-43c2-a1f3-c37cada5b7a0" x1="123.42" y1="335.74" x2="186.29" y2="197.58" xlink:href="#a4e8e265-0802-41e0-b4ff-c43fffe80519"/><linearGradient id="f5d9bf72-e9fc-4d22-bf28-9073dd333aa9" x1="56.4" y1="305.24" x2="119.27" y2="167.07" xlink:href="#a4e8e265-0802-41e0-b4ff-c43fffe80519"/><linearGradient id="a89b8dd9-920d-4844-9334-79b623f1e912" x1="83.83" y1="317.72" x2="146.7" y2="179.56" xlink:href="#a4e8e265-0802-41e0-b4ff-c43fffe80519"/><linearGradient id="bb5536e7-52bb-4854-a10c-293ceb61ab77" x1="-29.73" y1="266.04" x2="33.15" y2="127.88" xlink:href="#a4e8e265-0802-41e0-b4ff-c43fffe80519"/><linearGradient id="b91a87bb-7086-4e06-b32f-99b97a54d0bc" x1="398.43" y1="-31.66" x2="323.48" y2="97.53" xlink:href="#a4e8e265-0802-41e0-b4ff-c43fffe80519"/><linearGradient id="b3b2a7cc-7a54-4c4b-b33c-79df28034ce6" x1="475.99" y1="13.34" x2="401.04" y2="142.53" xlink:href="#a4e8e265-0802-41e0-b4ff-c43fffe80519"/><linearGradient id="a1f1c3bf-48d7-486f-9d18-e1945cf4a9a8" x1="502.97" y1="28.99" x2="428.02" y2="158.18" xlink:href="#a4e8e265-0802-41e0-b4ff-c43fffe80519"/><linearGradient id="b65aa213-8979-49b4-be2a-cce004b1f25a" x1="468.06" y1="8.73" x2="393.11" y2="137.92" xlink:href="#a4e8e265-0802-41e0-b4ff-c43fffe80519"/><linearGradient id="a6d5e985-80b7-4dc3-a09a-11035d88b97a" x1="274.72" y1="-103.43" x2="199.77" y2="25.76" xlink:href="#a4e8e265-0802-41e0-b4ff-c43fffe80519"/><linearGradient id="be85217f-a9f5-4d27-951f-f62a64de6b5e" x1="397.15" y1="-32.4" x2="322.2" y2="96.79" xlink:href="#a4e8e265-0802-41e0-b4ff-c43fffe80519"/><linearGradient id="ab960b84-d7b2-4c65-835d-3493efbdeef6" x1="382.91" y1="-40.66" x2="307.96" y2="88.53" xlink:href="#a4e8e265-0802-41e0-b4ff-c43fffe80519"/><linearGradient id="a91b294e-1936-40a1-87e3-975bc453fcd4" x1="230.57" y1="-129.05" x2="155.62" y2="0.14" xlink:href="#a4e8e265-0802-41e0-b4ff-c43fffe80519"/><linearGradient id="abb329bc-d175-4b52-b55a-cf17c31b79ae" x1="412.51" y1="-23.49" x2="337.56" y2="105.7" xlink:href="#a4e8e265-0802-41e0-b4ff-c43fffe80519"/><linearGradient id="b05e055e-c4f3-45c2-b848-9fa5a55dc5e4" x1="352.54" y1="-58.28" x2="277.59" y2="70.91" xlink:href="#a4e8e265-0802-41e0-b4ff-c43fffe80519"/><linearGradient id="afbed1e9-814f-4a6d-a8d5-d414b55d1ff7" x1="522.52" y1="40.33" x2="447.57" y2="169.52" xlink:href="#a4e8e265-0802-41e0-b4ff-c43fffe80519"/><linearGradient id="b1bf93e7-e8aa-4234-9ab8-fe92bf359b00" x1="548.32" y1="55.3" x2="473.37" y2="184.49" xlink:href="#a4e8e265-0802-41e0-b4ff-c43fffe80519"/><linearGradient id="f7655519-2d5f-4c13-867b-c06825300223" x1="494.76" y1="24.22" x2="419.81" y2="153.41" xlink:href="#a4e8e265-0802-41e0-b4ff-c43fffe80519"/><linearGradient id="ace9ebe0-0870-4149-ad90-fe33d53b18ea" x1="464.13" y1="6.46" x2="389.18" y2="135.65" xlink:href="#a4e8e265-0802-41e0-b4ff-c43fffe80519"/><linearGradient id="b5b5cb75-62eb-45d8-8dae-183eab34593a" x1="559.62" y1="61.85" x2="484.67" y2="191.04" xlink:href="#a4e8e265-0802-41e0-b4ff-c43fffe80519"/><linearGradient id="edcfa93f-328a-4338-8873-37f52bf5dec3" x1="502.39" y1="28.65" x2="427.44" y2="157.84" xlink:href="#a4e8e265-0802-41e0-b4ff-c43fffe80519"/><linearGradient id="a91f1bdc-ae87-4064-8c5d-926995a1683e" x1="539.77" y1="50.34" x2="464.82" y2="179.53" xlink:href="#a4e8e265-0802-41e0-b4ff-c43fffe80519"/><linearGradient id="f5246150-d081-41a3-8399-ca2e80b152e4" x1="481.66" y1="16.62" x2="406.7" y2="145.81" xlink:href="#a4e8e265-0802-41e0-b4ff-c43fffe80519"/><linearGradient id="bb9b7487-6f97-4029-9b83-c254da1f37e4" x1="435.03" y1="-10.43" x2="360.08" y2="118.76" xlink:href="#a4e8e265-0802-41e0-b4ff-c43fffe80519"/><linearGradient id="ee717abc-b3a7-4ec9-8e4e-0667ed2b160e" x1="540.28" y1="50.63" x2="465.33" y2="179.82" xlink:href="#a4e8e265-0802-41e0-b4ff-c43fffe80519"/><linearGradient id="a77658e5-fc65-481b-a192-62ebabaa6f23" x1="527.33" y1="43.12" x2="452.38" y2="172.31" xlink:href="#a4e8e265-0802-41e0-b4ff-c43fffe80519"/><linearGradient id="aaa19d93-bda2-47df-9709-106b672e85c9" x1="558.32" y1="61.1" x2="483.37" y2="190.29" xlink:href="#a4e8e265-0802-41e0-b4ff-c43fffe80519"/><linearGradient id="a88a797f-6497-40bd-9a6c-e903c09dda36" x1="296.88" y1="-90.57" x2="221.93" y2="38.62" xlink:href="#a4e8e265-0802-41e0-b4ff-c43fffe80519"/><linearGradient id="e2624562-95db-4639-bb8f-57737adacae9" x1="274.26" y1="-103.7" x2="199.31" y2="25.49" xlink:href="#a4e8e265-0802-41e0-b4ff-c43fffe80519"/><linearGradient id="b30cfe0e-f382-4cca-b01e-6a1ede19e1cd" x1="493.14" y1="23.28" x2="418.19" y2="152.47" xlink:href="#a4e8e265-0802-41e0-b4ff-c43fffe80519"/><linearGradient id="adf002b6-d5ca-443a-885a-1ad1c8bcfebf" x1="178.5" y1="-159.25" x2="103.55" y2="-30.06" xlink:href="#a4e8e265-0802-41e0-b4ff-c43fffe80519"/><linearGradient id="a89d6049-1f85-434f-82ba-739aaad498a4" x1="451.86" y1="-0.67" x2="376.91" y2="128.52" xlink:href="#a4e8e265-0802-41e0-b4ff-c43fffe80519"/><linearGradient id="bb4db689-a2a1-4712-8fa5-9210e131f621" x1="518.06" y1="37.74" x2="443.11" y2="166.94" xlink:href="#a4e8e265-0802-41e0-b4ff-c43fffe80519"/><linearGradient id="a57f85e9-af40-47b8-ba12-e4b4160a7c6f" x1="381.25" y1="-41.63" x2="306.3" y2="87.56" xlink:href="#a4e8e265-0802-41e0-b4ff-c43fffe80519"/><linearGradient id="b41b4d60-9421-4287-aeef-c46333076872" x1="516.38" y1="36.77" x2="441.43" y2="165.96" xlink:href="#a4e8e265-0802-41e0-b4ff-c43fffe80519"/><linearGradient id="aafd0aa4-9eab-410f-b2cd-b76c9a6b5339" x1="299.65" y1="-88.97" x2="224.7" y2="40.23" xlink:href="#a4e8e265-0802-41e0-b4ff-c43fffe80519"/><linearGradient id="aa55de9f-ef62-48c4-8a48-03a97b35bd4f" x1="430.84" y1="-12.86" x2="355.89" y2="116.34" xlink:href="#a4e8e265-0802-41e0-b4ff-c43fffe80519"/><linearGradient id="f7654d06-477e-4b91-b6bd-cf358568a158" x1="504.43" y1="29.84" x2="429.48" y2="159.03" xlink:href="#a4e8e265-0802-41e0-b4ff-c43fffe80519"/><linearGradient id="b8564353-f19d-4de2-8674-22ba77d20686" x1="317.63" y1="-78.54" x2="242.68" y2="50.65" xlink:href="#a4e8e265-0802-41e0-b4ff-c43fffe80519"/><linearGradient id="af927f02-80cc-4ce9-be0e-85c009bdf0eb" x1="530.71" y1="45.08" x2="455.76" y2="174.27" xlink:href="#a4e8e265-0802-41e0-b4ff-c43fffe80519"/><linearGradient id="ad6cbf79-947b-4605-b611-f51548cb849a" x1="244.43" y1="-121.01" x2="169.47" y2="8.18" xlink:href="#a4e8e265-0802-41e0-b4ff-c43fffe80519"/><linearGradient id="a5f852f4-7207-4d3e-9139-05db5d7729b8" x1="374.78" y1="-45.38" x2="299.83" y2="83.81" xlink:href="#a4e8e265-0802-41e0-b4ff-c43fffe80519"/><linearGradient id="f828aecf-3386-49bb-a64d-21db1f40d7ca" x1="453.02" y1="0.01" x2="378.07" y2="129.2" xlink:href="#a4e8e265-0802-41e0-b4ff-c43fffe80519"/><linearGradient id="b4c9f201-76c9-4945-8ccc-cce4ca3cd9b3" x1="397.82" y1="-32.01" x2="322.87" y2="97.18" xlink:href="#a4e8e265-0802-41e0-b4ff-c43fffe80519"/><linearGradient id="a636576e-7767-4fee-8761-20781f086615" x1="414.32" y1="-22.44" x2="339.37" y2="106.75" xlink:href="#a4e8e265-0802-41e0-b4ff-c43fffe80519"/><linearGradient id="bb318b16-c820-4edb-a8c0-2d3b7a1c9513" x1="333.76" y1="-69.18" x2="258.81" y2="60.01" xlink:href="#a4e8e265-0802-41e0-b4ff-c43fffe80519"/><linearGradient id="ed02ec60-ce65-4ecd-bef0-369251080f55" x1="469.38" y1="9.5" x2="394.43" y2="138.69" xlink:href="#a4e8e265-0802-41e0-b4ff-c43fffe80519"/><linearGradient id="a496b099-0ccb-4c81-a694-69342d410b34" x1="477.88" y1="14.43" x2="402.93" y2="143.62" xlink:href="#a4e8e265-0802-41e0-b4ff-c43fffe80519"/><linearGradient id="a1116477-187e-445e-b7c7-6d8b677ee6f4" x1="427.15" y1="-15" x2="352.2" y2="114.19" xlink:href="#a4e8e265-0802-41e0-b4ff-c43fffe80519"/><linearGradient id="e64475d5-e966-4ad2-8424-ae81ca1df138" x1="343.88" y1="-63.31" x2="268.93" y2="65.88" xlink:href="#a4e8e265-0802-41e0-b4ff-c43fffe80519"/><linearGradient id="bea3013d-8057-42e6-9f1e-3074e92bb4ba" x1="432.02" y1="-12.18" x2="357.07" y2="117.02" xlink:href="#a4e8e265-0802-41e0-b4ff-c43fffe80519"/><linearGradient id="b37ea24c-4630-4d74-af5f-29ed8be420bb" x1="494.62" y1="24.14" x2="419.67" y2="153.34" xlink:href="#a4e8e265-0802-41e0-b4ff-c43fffe80519"/><linearGradient id="a9bee4d5-6055-4623-ba99-8429a0bfb62c" x1="522.91" y1="40.56" x2="447.96" y2="169.75" xlink:href="#a4e8e265-0802-41e0-b4ff-c43fffe80519"/><linearGradient id="ed6611ed-cdba-472e-a815-0843a2a5ecea" x1="417.8" y1="-20.42" x2="342.85" y2="108.77" xlink:href="#a4e8e265-0802-41e0-b4ff-c43fffe80519"/><linearGradient id="a3aa710e-0cc3-4c27-99be-d594d6fcf511" x1="471.11" y1="10.5" x2="396.16" y2="139.69" xlink:href="#a4e8e265-0802-41e0-b4ff-c43fffe80519"/><linearGradient id="b46b424d-3326-40bb-bdc0-e0ee111302f4" x1="502.32" y1="28.62" x2="427.38" y2="157.8" xlink:href="#a4e8e265-0802-41e0-b4ff-c43fffe80519"/><linearGradient id="b1031b19-504e-4e51-a649-ad359df3b34e" x1="298.21" y1="-89.81" x2="223.25" y2="39.38" xlink:href="#a4e8e265-0802-41e0-b4ff-c43fffe80519"/><linearGradient id="ad09e474-45ff-452f-9479-82baf46da296" x1="485.65" y1="18.94" x2="410.7" y2="148.14" xlink:href="#a4e8e265-0802-41e0-b4ff-c43fffe80519"/><linearGradient id="e29ce368-4670-4234-aaa6-d65bcb4d0b5c" x1="538.25" y1="49.46" x2="463.3" y2="178.65" xlink:href="#a4e8e265-0802-41e0-b4ff-c43fffe80519"/><linearGradient id="f9b63bbe-4d59-4f06-bbab-63d0d09c1a57" x1="366.42" y1="-50.23" x2="291.47" y2="78.96" xlink:href="#a4e8e265-0802-41e0-b4ff-c43fffe80519"/><linearGradient id="b2793144-3b93-4a18-bca2-479d6160169d" x1="490.42" y1="21.71" x2="415.47" y2="150.9" xlink:href="#a4e8e265-0802-41e0-b4ff-c43fffe80519"/><linearGradient id="f48212f5-5a16-41e9-99fa-2c80d68a675d" x1="208.07" y1="-142.1" x2="133.12" y2="-12.91" xlink:href="#a4e8e265-0802-41e0-b4ff-c43fffe80519"/><linearGradient id="f253ffaa-6c61-4186-a406-6dd1f73be0bb" x1="353" y1="-58.01" x2="278.05" y2="71.17" xlink:href="#a4e8e265-0802-41e0-b4ff-c43fffe80519"/><linearGradient id="bb19f67b-a7a4-45ca-98a8-b04c6ad48ded" x1="454.88" y1="1.09" x2="379.93" y2="130.28" xlink:href="#a4e8e265-0802-41e0-b4ff-c43fffe80519"/><linearGradient id="bfb40f31-26c1-46ee-a2d4-2d6793fc0709" x1="565.74" y1="65.41" x2="490.79" y2="194.59" xlink:href="#a4e8e265-0802-41e0-b4ff-c43fffe80519"/><linearGradient id="a48ed24d-b755-48fc-812f-aadee21fb000" x1="520.42" y1="39.11" x2="445.47" y2="168.3" xlink:href="#a4e8e265-0802-41e0-b4ff-c43fffe80519"/><linearGradient id="b91366fd-f87e-462b-b1cf-c65dda1e749c" x1="447.53" y1="-3.17" x2="372.58" y2="126.02" xlink:href="#a4e8e265-0802-41e0-b4ff-c43fffe80519"/><linearGradient id="b47f8ccf-5716-45dc-abbe-6e0d29f95322" x1="511.88" y1="34.15" x2="436.93" y2="163.34" xlink:href="#a4e8e265-0802-41e0-b4ff-c43fffe80519"/><linearGradient id="ef2b4cb6-4df3-487e-963a-6968c276da5a" x1="545.26" y1="53.52" x2="470.3" y2="182.71" xlink:href="#a4e8e265-0802-41e0-b4ff-c43fffe80519"/><linearGradient id="a45ffef2-27a1-48e6-9a6b-2fc06fea09bf" x1="366.66" y1="-50.09" x2="291.71" y2="79.1" xlink:href="#a4e8e265-0802-41e0-b4ff-c43fffe80519"/><linearGradient id="bf0af6d8-df4b-4b64-94bd-f33c8b1e2796" x1="494.31" y1="23.96" x2="419.36" y2="153.16" xlink:href="#a4e8e265-0802-41e0-b4ff-c43fffe80519"/><linearGradient id="b2175386-32bf-47bf-a415-135be6f977c8" x1="446.08" y1="-4.02" x2="371.13" y2="125.17" xlink:href="#a4e8e265-0802-41e0-b4ff-c43fffe80519"/></defs><title>Svgzhu</title><g style="isolation:isolate"><g id="b6d2678f-3ee5-4aca-9ac5-9d98448bb757" data-name="Layer 1"><rect width="540" height="288" fill="#eef8fb"/><g clip-path="url(#ed02a516-b28b-43d0-b0db-f6cedc5f65d8)"><polygon points="30.26 178.1 27.09 178.1 25.51 180.84 27.09 183.59 30.26 183.59 31.85 180.84 30.26 178.1" fill="url(#a4e8e265-0802-41e0-b4ff-c43fffe80519)" style="mix-blend-mode:multiply"/><polygon points="97 178.36 93.66 178.36 91.99 181.25 93.66 184.15 97 184.15 98.67 181.25 97 178.36" fill="url(#a2977597-1704-41be-a874-31f69d587867)" style="mix-blend-mode:multiply"/><polygon points="107.75 213.99 87.77 213.99 77.77 231.3 87.77 248.61 107.75 248.61 117.74 231.3 107.75 213.99" fill="url(#b940e138-4af0-43a3-aa74-69276102d4c3)" style="mix-blend-mode:multiply"/><polygon points="29.81 252.78 5.09 252.78 -7.27 274.19 5.09 295.59 29.81 295.59 42.17 274.19 29.81 252.78" fill="url(#f72bf87c-dc59-4f55-a397-fe0fb988bd5d)" style="mix-blend-mode:multiply"/><polygon points="88.79 191.28 82.03 191.28 78.65 197.13 82.03 202.99 88.79 202.99 92.17 197.13 88.79 191.28" fill="url(#a4b48150-aa74-4f9c-9d86-e7db411542bd)" style="mix-blend-mode:multiply"/><polygon points="270.49 241.02 265.22 241.02 262.58 245.58 265.22 250.15 270.49 250.15 273.13 245.58 270.49 241.02" fill="url(#fda6c420-0a03-4c73-a6fe-481e6ec7a293)" style="mix-blend-mode:multiply"/><polygon points="46.91 266.59 35.7 266.59 30.09 276.3 35.7 286.01 46.91 286.01 52.52 276.3 46.91 266.59" fill="url(#a95831b4-5be7-426a-b2c0-a6c846055c8c)" style="mix-blend-mode:multiply"/><polygon points="264.96 262.26 261.88 262.26 260.33 264.93 261.88 267.59 264.96 267.59 266.5 264.93 264.96 262.26" fill="url(#bf48b4ea-7c51-4335-a9bc-78f5b2fed0ac)" style="mix-blend-mode:multiply"/><polygon points="165.17 193 161.6 193 159.82 196.09 161.6 199.18 165.17 199.18 166.95 196.09 165.17 193" fill="url(#f263eb08-0ce2-453f-b871-005aee67a61f)" style="mix-blend-mode:multiply"/><polygon points="236.88 268.83 218.92 268.83 209.94 284.38 218.92 299.94 236.88 299.94 245.87 284.38 236.88 268.83" fill="url(#a6692a3e-3aba-45fa-a378-3d8d084d8b71)" style="mix-blend-mode:multiply"/><polygon points="159.86 254.76 133.92 254.76 120.95 277.22 133.92 299.68 159.86 299.68 172.83 277.22 159.86 254.76" fill="url(#a87c5082-1181-46dd-9415-0b8252f9e15b)" style="mix-blend-mode:multiply"/><polygon points="208.52 221.88 198.87 221.88 194.04 230.24 198.87 238.6 208.52 238.6 213.35 230.24 208.52 221.88" fill="url(#be2073b9-f870-4829-90bb-d31581c22561)" style="mix-blend-mode:multiply"/><polygon points="227.81 248.31 204.64 248.31 193.05 268.38 204.64 288.45 227.81 288.45 239.4 268.38 227.81 248.31" fill="url(#b02baa2f-1bb8-4c40-8b35-7495ef7ce509)" style="mix-blend-mode:multiply"/><polygon points="50.78 237.71 46.29 237.71 44.05 241.59 46.29 245.48 50.78 245.48 53.02 241.59 50.78 237.71" fill="url(#ba8d5b33-f40d-43e4-a6f3-a004d25e1efb)" style="mix-blend-mode:multiply"/><polygon points="179.1 240.29 167.95 240.29 162.37 249.95 167.95 259.61 179.1 259.61 184.68 249.95 179.1 240.29" fill="url(#e27a53ce-3cf4-46a6-bf45-91bd23a9b894)" style="mix-blend-mode:multiply"/><polygon points="139.63 224.16 132.64 224.16 129.14 230.22 132.64 236.28 139.63 236.28 143.13 230.22 139.63 224.16" fill="url(#b126a730-ed68-4619-89c5-192a1afa825f)" style="mix-blend-mode:multiply"/><polygon points="104.28 275.84 96.2 275.84 92.16 282.84 96.2 289.83 104.28 289.83 108.31 282.84 104.28 275.84" fill="url(#f0192bea-c379-4987-8cad-595ca6d31f55)" style="mix-blend-mode:multiply"/><polygon points="31.16 168 5.94 168 -6.67 189.84 5.94 211.68 31.16 211.68 43.77 189.84 31.16 168" fill="url(#efef37e5-c252-4b9e-8ceb-c1b4f01e3c8c)" style="mix-blend-mode:multiply"/><polygon points="78.41 178.43 74.75 178.43 72.93 181.59 74.75 184.76 78.41 184.76 80.24 181.59 78.41 178.43" fill="url(#f3920496-8b10-4162-a41f-c3de69fc4adb)" style="mix-blend-mode:multiply"/><polygon points="78.35 213.94 56.38 213.94 45.4 232.96 56.38 251.99 78.35 251.99 89.33 232.96 78.35 213.94" fill="url(#a6c2d57b-89c3-4ae4-9522-0d9907fad4fa)" style="mix-blend-mode:multiply"/><polygon points="139.82 252.93 135.7 252.93 133.63 256.5 135.7 260.08 139.82 260.08 141.89 256.5 139.82 252.93" fill="url(#a540b16d-b635-462a-8e74-1519b46fff26)" style="mix-blend-mode:multiply"/><polygon points="104.04 246.45 80.91 246.45 69.35 266.48 80.91 286.51 104.04 286.51 115.61 266.48 104.04 246.45" fill="url(#a08b2a99-4f4d-4863-ac5e-533d3829f0b2)" style="mix-blend-mode:multiply"/><polygon points="200.62 279.69 197.25 279.69 195.56 282.61 197.25 285.53 200.62 285.53 202.3 282.61 200.62 279.69" fill="url(#bbc54d9a-9561-4657-b234-d4e415b70358)" style="mix-blend-mode:multiply"/><polygon points="10.38 249.64 4.36 249.64 1.35 254.85 4.36 260.06 10.38 260.06 13.39 254.85 10.38 249.64" fill="url(#ba1f2b3a-3c42-4380-a060-1a9f1db9ee41)" style="mix-blend-mode:multiply"/><polygon points="186.04 262.18 173.65 262.18 167.44 272.92 173.65 283.65 186.04 283.65 192.25 272.92 186.04 262.18" fill="url(#b53983ea-2534-4242-bf81-6ac9d17e1365)" style="mix-blend-mode:multiply"/><polygon points="272.09 275.35 260.1 275.35 254.11 285.73 260.1 296.11 272.09 296.11 278.08 285.73 272.09 275.35" fill="url(#b3b69527-2d34-4ed0-bc97-868b53a943b4)" style="mix-blend-mode:multiply"/><polygon points="301.81 256.72 296.93 256.72 294.48 260.95 296.93 265.18 301.81 265.18 304.25 260.95 301.81 256.72" fill="url(#faa00412-c808-4187-88b6-477b18dcec4f)" style="mix-blend-mode:multiply"/><polygon points="43.75 217.19 35.58 217.19 31.49 224.26 35.58 231.33 43.75 231.33 47.83 224.26 43.75 217.19" fill="url(#e2bd2003-1039-42b4-8ad0-efa3c41b9ce3)" style="mix-blend-mode:multiply"/><polygon points="6.44 173.26 -3.9 173.26 -9.07 182.22 -3.9 191.18 6.44 191.18 11.61 182.22 6.44 173.26" fill="url(#ea0a8fbf-df29-494b-82d8-9768a4efb49c)" style="mix-blend-mode:multiply"/><polygon points="65.11 271.75 59.42 271.75 56.58 276.67 59.42 281.59 65.11 281.59 67.95 276.67 65.11 271.75" fill="url(#b362f3d8-801f-4611-84b9-c5161595e01c)" style="mix-blend-mode:multiply"/><g style="mix-blend-mode:multiply"><path d="M233.36,249.44l2.57,4.46-2.57,4.46h-5.15l-2.57-4.46,2.57-4.46h5.15m.19-.34H228l-2.77,4.8,2.77,4.79h5.53l2.77-4.79-2.77-4.8Z" fill="url(#b6d18408-6ef0-4532-97ba-614440699982)"/></g><g style="mix-blend-mode:multiply"><path d="M121.18,243.34l3.24,5.6-3.24,5.6h-6.47l-3.23-5.6,3.23-5.6h6.47m.24-.42h-7l-3.48,6,3.48,6h7l3.48-6-3.48-6Z" fill="url(#a25f4c1c-1d0a-4604-ae58-6e2bbb54af55)"/></g><g style="mix-blend-mode:multiply"><path d="M255.19,248.45l12.35,21.4-12.35,21.39h-24.7l-12.35-21.39,12.35-21.4h24.7m.93-1.6H229.57l-13.28,23,13.28,23h26.55l13.28-23-13.28-23Z" fill="url(#fc91cec9-a5e0-43de-8645-bdeae6b89fc1)"/></g><g style="mix-blend-mode:multiply"><path d="M130.44,278.59l5.06,8.77-5.06,8.78H120.31l-5.07-8.78,5.07-8.77h10.13m.38-.66H119.93l-5.45,9.43,5.45,9.44h10.89l5.44-9.44-5.44-9.43Z" fill="url(#a79dff7d-9d0e-43ce-9366-2895bb2f6165)"/></g><g style="mix-blend-mode:multiply"><path d="M46.38,193,49,197.57l-2.63,4.56H41.12l-2.63-4.56L41.12,193h5.26m.2-.35H40.93l-2.83,4.9,2.83,4.9h5.65l2.83-4.9-2.83-4.9Z" fill="url(#b26b67e8-5d2e-412a-a579-edec73c4650c)"/></g><g style="mix-blend-mode:multiply"><path d="M122.43,266.67l2.27,3.94-2.27,3.93h-4.54l-2.27-3.93,2.27-3.94h4.54m.17-.29h-4.88l-2.44,4.23,2.44,4.22h4.88l2.45-4.22-2.45-4.23Z" fill="url(#b316714c-cd11-4c28-a681-fcdc023ea3b4)"/></g><g style="mix-blend-mode:multiply"><path d="M113.68,181.13l1.55,2.68-1.55,2.69h-3.11L109,183.81l1.55-2.68h3.11m.11-.2h-3.33l-1.67,2.88,1.67,2.89h3.33l1.67-2.89-1.67-2.88Z" fill="url(#af9a0568-0959-4981-a604-cfbca78fdbad)"/></g><g style="mix-blend-mode:multiply"><path d="M62.07,240.56,72.74,259,62.07,277.51H40.74L30.07,259l10.67-18.47H62.07m.8-1.39H39.94L28.47,259,39.94,278.9H62.87L74.34,259,62.87,239.17Z" fill="url(#bac917fa-4ef4-493e-b1f4-4626b7b0a808)"/></g><g style="mix-blend-mode:multiply"><path d="M73.83,253.57,75.26,256l-1.43,2.47H71L69.57,256,71,253.57h2.84m.11-.18H70.88L69.35,256l1.53,2.65h3.06L75.47,256l-1.53-2.64Z" fill="url(#a841fe2c-1378-455a-bc20-393c46dd6df9)"/></g><g style="mix-blend-mode:multiply"><path d="M297.34,262.77l7.82,13.55-7.82,13.54H281.7l-7.82-13.54,7.82-13.55h15.64m.58-1H281.11l-8.41,14.57,8.41,14.56h16.81l8.41-14.56-8.41-14.57Z" fill="url(#b59f40ac-c9d4-4bc5-ae5f-0c1c97e915fe)"/></g><g style="mix-blend-mode:multiply"><path d="M34,218.8l12.06,20.88L34,260.57H9.91L-2.15,239.68,9.91,218.8H34m.91-1.57H9L-4,239.68,9,262.14H34.94l13-22.46-13-22.45Z" fill="url(#b84a854e-9a79-46d1-8d14-a1680336f39e)"/></g><g style="mix-blend-mode:multiply"><path d="M78.08,285.11l1.38,2.4-1.38,2.41H75.31l-1.39-2.41,1.39-2.4h2.77m.1-.18h-3l-1.49,2.58,1.49,2.59h3l1.49-2.59-1.49-2.58Z" fill="url(#b2a07c2b-0054-4c5b-961d-0d17eceee2e9)"/></g><g style="mix-blend-mode:multiply"><path d="M27.61,210.66l1.63,2.82-1.63,2.82H24.35l-1.63-2.82,1.63-2.82h3.26m.12-.22h-3.5l-1.75,3,1.75,3h3.5l1.75-3-1.75-3Z" fill="url(#ec6e7946-5833-4666-9511-eeb7bf6ba198)"/></g><g style="mix-blend-mode:multiply"><path d="M216.41,239.06l1.72,3-1.72,3H213l-1.72-3,1.72-3h3.45m.12-.22h-3.7L211,242l1.84,3.21h3.7l1.85-3.21-1.85-3.2Z" fill="url(#b9499688-f0e8-43ca-a969-b6bf9ae70aed)"/></g><g style="mix-blend-mode:multiply"><path d="M165.43,281.37l3,5.18-3,5.18h-6l-3-5.18,3-5.18h6m.23-.39h-6.43L156,286.55l3.22,5.57h6.43l3.21-5.57L165.66,281Z" fill="url(#b6bfb2e4-438b-4d2e-aa14-7e425bc04b70)"/></g><g style="mix-blend-mode:multiply"><path d="M.26,228.91l3.26,5.63L.26,240.18H-6.25l-3.25-5.64,3.25-5.63H.26m.25-.43h-7l-3.5,6.06,3.5,6.07h7L4,234.54l-3.5-6.06Z" fill="url(#a1f64365-811f-4ba8-85c0-abec92d770a4)"/></g><g style="mix-blend-mode:multiply"><path d="M175.68,215.23,186.52,234l-10.84,18.78H154L143.14,234,154,215.23h21.69m.81-1.41H153.17L141.52,234l11.65,20.2h23.32L188.15,234l-11.66-20.19Z" fill="url(#f76d686e-025d-40be-ab64-54065bc55d99)"/></g><g style="mix-blend-mode:multiply"><path d="M128.37,193.32l7.06,12.24-7.06,12.23H114.24l-7.06-12.23,7.06-12.24h14.13m.53-.91H113.71l-7.59,13.15,7.59,13.15H128.9l7.59-13.15-7.59-13.15Z" fill="url(#e56b8281-399f-4bb8-a0b2-9766b92b103e)"/></g><g style="mix-blend-mode:multiply"><path d="M158.66,235.4l1.59,2.76-1.59,2.76h-3.19l-1.59-2.76,1.59-2.76h3.19m.12-.21h-3.43l-1.71,3,1.71,3h3.43l1.71-3-1.71-3Z" fill="url(#bc3f19f0-d26a-47ca-a17d-3e7b78829337)"/></g><g style="mix-blend-mode:multiply"><path d="M201.16,254.92l1.85,3.21-1.85,3.2h-3.7l-1.85-3.2,1.85-3.21h3.7m.14-.24h-4l-2,3.45,2,3.44h4l2-3.44-2-3.45Z" fill="url(#f7d07d33-29db-4fb3-9b20-823f5ac47930)"/></g><g style="mix-blend-mode:multiply"><path d="M319.86,271.94l1.52,2.63-1.52,2.63h-3l-1.52-2.63,1.52-2.63h3m.11-.2H316.7l-1.63,2.83,1.63,2.83H320l1.64-2.83L320,271.74Z" fill="url(#aa7aed0d-77f1-4467-8d45-3a966fab9bcb)"/></g><g style="mix-blend-mode:multiply"><circle cx="160.23" cy="178.19" r="0.33" fill="url(#ab26400b-aade-46bb-b157-df650da3894e)"/></g><g style="mix-blend-mode:multiply"><path d="M130.92,179.06a1,1,0,1,1-.95-.95A1,1,0,0,1,130.92,179.06Z" fill="url(#b15ee711-7dfa-4f6f-b414-049d198c9ac6)"/></g><g style="mix-blend-mode:multiply"><path d="M346.05,274.75a.37.37,0,0,1-.37.37.38.38,0,0,1-.37-.37.37.37,0,0,1,.37-.37A.36.36,0,0,1,346.05,274.75Z" fill="url(#b48b2fee-880f-480e-b25f-6dfe691a30bf)"/></g><g style="mix-blend-mode:multiply"><path d="M250.87,244.8a2.16,2.16,0,1,1-2.16-2.16A2.16,2.16,0,0,1,250.87,244.8Z" fill="url(#ab4ceb91-4fbb-4f66-86b0-dfda365c5aab)"/></g><g style="mix-blend-mode:multiply"><circle cx="190.44" cy="239.95" r="0.53" fill="url(#f1d82aef-386d-4483-a4c3-188973bb08d0)"/></g><g style="mix-blend-mode:multiply"><path d="M308.51,287.94a.31.31,0,1,1-.31-.31A.31.31,0,0,1,308.51,287.94Z" fill="url(#b084cbc9-0f58-4b33-824f-e5e0e93c40f2)"/></g><g style="mix-blend-mode:multiply"><path d="M3.32,282.4a1.83,1.83,0,1,1-1.82-1.82A1.83,1.83,0,0,1,3.32,282.4Z" fill="url(#bc4d6c7c-5b9c-4a0f-b0a6-08985e4210f5)"/></g><g style="mix-blend-mode:multiply"><path d="M57.1,213.36a.29.29,0,0,1-.58,0,.29.29,0,1,1,.58,0Z" fill="url(#e2661f9e-ca31-4af7-9a1c-a07e832a7555)"/></g><g style="mix-blend-mode:multiply"><path d="M31.77,257.07A1.73,1.73,0,1,1,30,255.34,1.72,1.72,0,0,1,31.77,257.07Z" fill="url(#e6ea1bd1-9a61-40ab-aac5-8dbf276da0fe)"/></g><g style="mix-blend-mode:multiply"><circle cx="188.49" cy="222.85" r="0.76" fill="url(#aa1b4e2d-d29c-42e9-92ba-0cec22924bd8)"/></g><g style="mix-blend-mode:multiply"><circle cx="9.96" cy="222.64" r="0.66" fill="url(#f1f7826a-5ce5-44eb-b610-1caeadb53308)"/></g><g style="mix-blend-mode:multiply"><path d="M290.06,242.33a1.18,1.18,0,1,1-1.18-1.19A1.18,1.18,0,0,1,290.06,242.33Z" fill="url(#bcf34987-4031-4b54-ba93-62364f0e9d05)"/></g><g style="mix-blend-mode:multiply"><path d="M59.1,185a1.22,1.22,0,1,1-1.22-1.22A1.23,1.23,0,0,1,59.1,185Z" fill="url(#acb9501e-f18b-4fbc-8532-3829085c1c9c)"/></g><g style="mix-blend-mode:multiply"><circle cx="157.84" cy="260.1" r="0.31" fill="url(#e0ffc984-c6af-43c2-a1f3-c37cada5b7a0)"/></g><g style="mix-blend-mode:multiply"><path d="M97.59,215.54a.38.38,0,0,1-.75,0,.38.38,0,0,1,.75,0Z" fill="url(#f5d9bf72-e9fc-4d22-bf28-9073dd333aa9)"/></g><g style="mix-blend-mode:multiply"><circle cx="142.88" cy="187.96" r="1.74" fill="url(#a89b8dd9-920d-4844-9334-79b623f1e912)"/></g><g style="mix-blend-mode:multiply"><path d="M.37,204.07A1.89,1.89,0,0,1-1.52,206a1.9,1.9,0,0,1-1.9-1.89,1.9,1.9,0,0,1,1.9-1.9A1.9,1.9,0,0,1,.37,204.07Z" fill="url(#bb5536e7-52bb-4854-a10c-293ceb61ab77)"/></g><polygon points="383.59 -6.11 378.53 -6.11 376 -1.73 378.53 2.66 383.59 2.66 386.12 -1.73 383.59 -6.11" fill="url(#b91a87bb-7086-4e06-b32f-99b97a54d0bc)" style="mix-blend-mode:multiply"/><polygon points="444.03 68.39 435.6 68.39 431.38 75.69 435.6 82.99 444.03 82.99 448.24 75.69 444.03 68.39" fill="url(#b3b2a7cc-7a54-4c4b-b33c-79df28034ce6)" style="mix-blend-mode:multiply"/><polygon points="486.25 57.73 465.85 57.73 455.64 75.4 465.85 93.07 486.25 93.07 496.45 75.4 486.25 57.73" fill="url(#a1f1c3bf-48d7-486f-9d18-e1945cf4a9a8)" style="mix-blend-mode:multiply"/><polygon points="465.83 12.54 459.14 12.54 455.79 18.34 459.14 24.14 465.83 24.14 469.18 18.34 465.83 12.54" fill="url(#b65aa213-8979-49b4-be2a-cce004b1f25a)" style="mix-blend-mode:multiply"/><polygon points="218.27 -6.17 212 -6.17 208.86 -0.73 212 4.7 218.27 4.7 221.41 -0.73 218.27 -6.17" fill="url(#a6d5e985-80b7-4dc3-a09a-11035d88b97a)" style="mix-blend-mode:multiply"/><polygon points="360.47 30.69 330.66 30.69 315.76 56.51 330.66 82.32 360.47 82.32 375.38 56.51 360.47 30.69" fill="url(#be85217f-a9f5-4d27-951f-f62a64de6b5e)" style="mix-blend-mode:multiply"/><polygon points="361.68 -4.09 355.68 -4.09 352.68 1.11 355.68 6.31 361.68 6.31 364.68 1.11 361.68 -4.09" fill="url(#ab960b84-d7b2-4c65-835d-3493efbdeef6)" style="mix-blend-mode:multiply"/><polygon points="147.73 13.73 143.48 13.73 141.35 17.41 143.48 21.09 147.73 21.09 149.85 17.41 147.73 13.73" fill="url(#a91b294e-1936-40a1-87e3-975bc453fcd4)" style="mix-blend-mode:multiply"/><polygon points="389.87 15.52 385.7 15.52 383.62 19.13 385.7 22.74 389.87 22.74 391.96 19.13 389.87 15.52" fill="url(#abb329bc-d175-4b52-b55a-cf17c31b79ae)" style="mix-blend-mode:multiply"/><polygon points="300.63 31.14 283.31 31.14 274.65 46.14 283.31 61.14 300.63 61.14 309.29 46.14 300.63 31.14" fill="url(#b05e055e-c4f3-45c2-b848-9fa5a55dc5e4)" style="mix-blend-mode:multiply"/><polygon points="481.96 110.14 456.41 110.14 443.63 132.26 456.41 154.39 481.96 154.39 494.73 132.26 481.96 110.14" fill="url(#afbed1e9-814f-4a6d-a8d5-d414b55d1ff7)" style="mix-blend-mode:multiply"/><polygon points="531.49 84.24 512.61 84.24 503.16 100.59 512.61 116.94 531.49 116.94 540.93 100.59 531.49 84.24" fill="url(#b1bf93e7-e8aa-4234-9ab8-fe92bf359b00)" style="mix-blend-mode:multiply"/><polygon points="512.47 -6.33 508.51 -6.33 506.53 -2.91 508.51 0.52 512.47 0.52 514.45 -2.91 512.47 -6.33" fill="url(#f7655519-2d5f-4c13-867b-c06825300223)" style="mix-blend-mode:multiply"/><polygon points="433.4 59.3 406.44 59.3 392.95 82.66 406.44 106.01 433.4 106.01 446.89 82.66 433.4 59.3" fill="url(#ace9ebe0-0870-4149-ad90-fe33d53b18ea)" style="mix-blend-mode:multiply"/><polygon points="525.75 120.2 519.67 120.2 516.63 125.47 519.67 130.73 525.75 130.73 528.79 125.47 525.75 120.2" fill="url(#b5b5cb75-62eb-45d8-8dae-183eab34593a)" style="mix-blend-mode:multiply"/><polygon points="500.14 32.41 471.97 32.41 457.88 56.81 471.97 81.2 500.14 81.2 514.23 56.81 500.14 32.41" fill="url(#edcfa93f-328a-4338-8873-37f52bf5dec3)" style="mix-blend-mode:multiply"/><polygon points="537.99 53.28 510.04 53.28 496.07 77.49 510.04 101.7 537.99 101.7 551.97 77.49 537.99 53.28" fill="url(#a91f1bdc-ae87-4064-8c5d-926995a1683e)" style="mix-blend-mode:multiply"/><polygon points="463.11 48.53 447.57 48.53 439.81 61.98 447.57 75.43 463.11 75.43 470.87 61.98 463.11 48.53" fill="url(#f5246150-d081-41a3-8399-ca2e80b152e4)" style="mix-blend-mode:multiply"/><polygon points="423.61 9.2 408.58 9.2 401.07 22.21 408.58 35.22 423.61 35.22 431.12 22.21 423.61 9.2" fill="url(#bb9b7487-6f97-4029-9b83-c254da1f37e4)" style="mix-blend-mode:multiply"/><g style="mix-blend-mode:multiply"><path d="M513.67,96.4l11,19-11,19H491.73l-11-19,11-19h21.94M514.5,95H490.91l-11.8,20.42,11.8,20.43H514.5l11.79-20.43L514.5,95Z" fill="url(#ee717abc-b3a7-4ec9-8e4e-0667ed2b160e)"/></g><g style="mix-blend-mode:multiply"><path d="M515.68,63.09l14.11,24.43L515.68,112H487.47L473.36,87.52l14.11-24.43h28.21m1.06-1.84H486.41L471.24,87.52l15.17,26.27h30.33l15.17-26.27L516.74,61.25Z" fill="url(#a77658e5-fc65-481b-a192-62ebabaa6f23)"/></g><g style="mix-blend-mode:multiply"><path d="M546.39,81.65l2.35,4.07-2.35,4.06H541.7l-2.35-4.06,2.35-4.07h4.69m.18-.31h-5.05L539,85.72l2.52,4.37h5.05l2.52-4.37-2.52-4.38Z" fill="url(#aaa19d93-bda2-47df-9709-106b672e85c9)"/></g><g style="mix-blend-mode:multiply"><path d="M246.38-3.56l4,6.93-4,6.94h-8l-4-6.94,4-6.93h8m.31-.52h-8.61l-4.31,7.45,4.31,7.46h8.61L251,3.37l-4.3-7.45Z" fill="url(#a88a797f-6497-40bd-9a6c-e903c09dda36)"/></g><g style="mix-blend-mode:multiply"><path d="M205.81,14.27l1.67,2.91-1.67,2.9h-3.35l-1.68-2.9,1.68-2.91h3.35m.12-.21h-3.6l-1.8,3.12,1.8,3.12h3.6l1.81-3.12-1.81-3.12Z" fill="url(#e2624562-95db-4639-bb8f-57737adacae9)"/></g><g style="mix-blend-mode:multiply"><path d="M510.53-6.79l11.72,20.3-11.72,20.3H487.08l-11.72-20.3,11.72-20.3h23.45m.88-1.53H486.2L473.6,13.51l12.6,21.83h25.21L524,13.51,511.41-8.32Z" fill="url(#b30cfe0e-f382-4cca-b01e-6a1ede19e1cd)"/></g><g style="mix-blend-mode:multiply"><path d="M86.35-.43l1.85,3.2L86.35,6h-3.7L80.8,2.77l1.85-3.2h3.7m.14-.24h-4l-2,3.44,2,3.45h4l2-3.45-2-3.44Z" fill="url(#adf002b6-d5ca-443a-885a-1ad1c8bcfebf)"/></g><g style="mix-blend-mode:multiply"><path d="M439,21.51,441,25.08,439,28.65h-4.12l-2.06-3.57,2.06-3.57H439m.15-.27H434.7l-2.21,3.84,2.21,3.84h4.43l2.22-3.84-2.22-3.84Z" fill="url(#a89d6049-1f85-434f-82ba-739aaad498a4)"/></g><g style="mix-blend-mode:multiply"><path d="M542-3.49,544.15.27,542,4h-4.35L535.45.27l2.18-3.76H542m.16-.28h-4.67l-2.34,4,2.34,4.05h4.67L544.48.27l-2.34-4Z" fill="url(#bb4db689-a2a1-4712-8fa5-9210e131f621)"/></g><g style="mix-blend-mode:multiply"><path d="M338.61,31.84l2.86,4.95-2.86,4.94H332.9l-2.85-4.94,2.85-4.95h5.71m.22-.37h-6.14l-3.07,5.32,3.07,5.31h6.14l3.06-5.31-3.06-5.32Z" fill="url(#a57f85e9-af40-47b8-ba12-e4b4160a7c6f)"/></g><g style="mix-blend-mode:multiply"><path d="M515.61,38.05l3.28,5.67-3.28,5.67h-6.54l-3.27-5.67,3.27-5.67h6.54m.25-.42h-7l-3.51,6.09,3.51,6.09h7l3.52-6.09-3.52-6.09Z" fill="url(#b41b4d60-9421-4287-aeef-c46333076872)"/></g><g style="mix-blend-mode:multiply"><path d="M236.51,19.85l2.63,4.56L236.51,29h-5.26l-2.63-4.55,2.63-4.56h5.26m.2-.34h-5.66l-2.82,4.9,2.82,4.89h5.66l2.83-4.89-2.83-4.9Z" fill="url(#aafd0aa4-9eab-410f-b2cd-b76c9a6b5339)"/></g><g style="mix-blend-mode:multiply"><path d="M400.06,40.09l14.49,25.1-14.49,25.1h-29l-14.49-25.1,14.49-25.1h29m1.09-1.89H370l-15.59,27,15.59,27h31.16l15.58-27-15.58-27Z" fill="url(#aa55de9f-ef62-48c4-8a48-03a97b35bd4f)"/></g><g style="mix-blend-mode:multiply"><path d="M478.8,73.92l11.51,19.93L478.8,113.78h-23L444.28,93.85l11.51-19.93h23m.86-1.49H454.92L442.55,93.85l12.37,21.43h24.74L492,93.85,479.66,72.43Z" fill="url(#f7654d06-477e-4b91-b6bd-cf358568a158)"/></g><g style="mix-blend-mode:multiply"><path d="M264.2,13.52l3.9,6.75L264.2,27h-7.8l-3.9-6.76,3.9-6.75h7.8m.29-.51H256.1l-4.19,7.26,4.19,7.27h8.39l4.2-7.27L264.49,13Z" fill="url(#b8564353-f19d-4de2-8674-22ba77d20686)"/></g><g style="mix-blend-mode:multiply"><path d="M554.31,4.29l13.85,24-13.85,24h-27.7l-13.85-24,13.85-24h27.7m1-1.8H525.57L510.68,28.28l14.89,25.79h29.78l14.89-25.79L555.35,2.49Z" fill="url(#af927f02-80cc-4ce9-be0e-85c009bdf0eb)"/></g><g style="mix-blend-mode:multiply"><path d="M179.45-9.07l7.84,13.58-7.84,13.58H163.77L155.93,4.51l7.84-13.58h15.68m.59-1H163.18l-8.43,14.6,8.43,14.6H180l8.43-14.6L180-10.09Z" fill="url(#ad6cbf79-947b-4605-b611-f51548cb849a)"/></g><g style="mix-blend-mode:multiply"><path d="M353.21-8.32l14,24.31-14,24.31H325.14L311.1,16l14-24.31h28.07m1.05-1.82H324.09L309,16l15.09,26.13h30.17L369.35,16,354.26-10.14Z" fill="url(#a5f852f4-7207-4d3e-9139-05db5d7729b8)"/></g><g style="mix-blend-mode:multiply"><path d="M402.16,87.61l6.72,11.64-6.72,11.63H388.73L382,99.25l6.72-11.64h13.43m.51-.87H388.23L381,99.25l7.23,12.5h14.44l7.22-12.5-7.22-12.51Z" fill="url(#f828aecf-3386-49bb-a64d-21db1f40d7ca)"/></g><g style="mix-blend-mode:multiply"><path d="M365,24.49l2.44,4.22L365,32.93h-4.88l-2.43-4.22,2.43-4.22H365m.18-.32H360l-2.62,4.54L360,33.25h5.24l2.62-4.54-2.62-4.54Z" fill="url(#b4c9f201-76c9-4945-8ccc-cce4ca3cd9b3)"/></g><g style="mix-blend-mode:multiply"><path d="M370,53.94,376.37,65,370,76.1h-12.8L350.78,65l6.4-11.08H370m.48-.84H356.7L349.82,65l6.88,11.91h13.76L377.33,65,370.46,53.1Z" fill="url(#a636576e-7767-4fee-8761-20781f086615)"/></g><g style="mix-blend-mode:multiply"><path d="M293.13.75,306.9,24.59,293.13,48.44H265.6L251.83,24.59,265.6.75h27.53m1-1.79h-29.6l-14.8,25.63,14.8,25.64h29.6L309,24.59,294.16-1Z" fill="url(#bb318b16-c820-4edb-a8c0-2d3b7a1c9513)"/></g><g style="mix-blend-mode:multiply"><path d="M459.49,26.49l8.45,14.63-8.45,14.64h-16.9l-8.45-14.64,8.45-14.63h16.9m.63-1.1H442l-9.09,15.73L442,56.86h18.16l9.09-15.74-9.09-15.73Z" fill="url(#ed02ec60-ce65-4ecd-bef0-369251080f55)"/></g><g style="mix-blend-mode:multiply"><path d="M439.8,80l14.56,25.23L439.8,130.41H410.66l-14.57-25.23L410.66,80H439.8m1.09-1.9H409.57l-15.66,27.13,15.66,27.12h31.32l15.66-27.12L440.89,78.05Z" fill="url(#a496b099-0ccb-4c81-a694-69342d410b34)"/></g><g style="mix-blend-mode:multiply"><path d="M405.21,22.71l12.22,21.17L405.21,65H380.77L368.55,43.88l12.22-21.17h24.44m.92-1.59H379.86L366.72,43.88l13.14,22.75h26.27l13.14-22.75L406.13,21.12Z" fill="url(#a1116477-187e-445e-b7c7-6d8b677ee6f4)"/></g><g style="mix-blend-mode:multiply"><path d="M311.86-8.23l12.77,22.11L311.86,36H286.33L273.56,13.88,286.33-8.23h25.53m1-1.66H285.37L271.64,13.88l13.73,23.78h27.45l13.73-23.78L312.82-9.89Z" fill="url(#e64475d5-e966-4ad2-8424-ae81ca1df138)"/></g><g style="mix-blend-mode:multiply"><path d="M374.47,89.29A1.33,1.33,0,1,1,373.15,88,1.33,1.33,0,0,1,374.47,89.29Z" fill="url(#bea3013d-8057-42e6-9f1e-3074e92bb4ba)"/></g><g style="mix-blend-mode:multiply"><path d="M430.26,139.78a2.72,2.72,0,1,1-2.72-2.72A2.71,2.71,0,0,1,430.26,139.78Z" fill="url(#b37ea24c-4630-4d74-af5f-29ed8be420bb)"/></g><g style="mix-blend-mode:multiply"><path d="M484.84,107.21a.6.6,0,1,1-.6-.6A.6.6,0,0,1,484.84,107.21Z" fill="url(#a9bee4d5-6055-4623-ba99-8429a0bfb62c)"/></g><g style="mix-blend-mode:multiply"><path d="M405.49,1.44a.37.37,0,1,1-.37-.37A.37.37,0,0,1,405.49,1.44Z" fill="url(#ed6611ed-cdba-472e-a815-0843a2a5ecea)"/></g><g style="mix-blend-mode:multiply"><circle cx="476.98" cy="0.39" r="0.53" fill="url(#a3aa710e-0cc3-4c27-99be-d594d6fcf511)"/></g><g style="mix-blend-mode:multiply"><path d="M447.81,123.18a.35.35,0,1,1-.34-.35A.35.35,0,0,1,447.81,123.18Z" fill="url(#b46b424d-3326-40bb-bdc0-e0ee111302f4)"/></g><g style="mix-blend-mode:multiply"><path d="M223.43,40.46a.8.8,0,1,1-.8-.8A.8.8,0,0,1,223.43,40.46Z" fill="url(#b1031b19-504e-4e51-a649-ad359df3b34e)"/></g><g style="mix-blend-mode:multiply"><path d="M472.94,41.52a.39.39,0,1,1-.39-.39A.39.39,0,0,1,472.94,41.52Z" fill="url(#ad09e474-45ff-452f-9479-82baf46da296)"/></g><g style="mix-blend-mode:multiply"><path d="M534.45,57.85a1.07,1.07,0,1,1-1.07-1.06A1.07,1.07,0,0,1,534.45,57.85Z" fill="url(#e29ce368-4670-4234-aaa6-d65bcb4d0b5c)"/></g><g style="mix-blend-mode:multiply"><path d="M296.62,72.52a1.42,1.42,0,1,1-2.83,0,1.42,1.42,0,0,1,2.83,0Z" fill="url(#f9b63bbe-4d59-4f06-bbab-63d0d09c1a57)"/></g><g style="mix-blend-mode:multiply"><path d="M447.72,96.17a.5.5,0,0,1-1,0,.5.5,0,1,1,1,0Z" fill="url(#b2793144-3b93-4a18-bca2-479d6160169d)"/></g><g style="mix-blend-mode:multiply"><path d="M123.23,7.71a2.07,2.07,0,1,1-2.07-2.07A2.06,2.06,0,0,1,123.23,7.71Z" fill="url(#f48212f5-5a16-41e9-99fa-2c80d68a675d)"/></g><g style="mix-blend-mode:multiply"><path d="M316.55,5.77a.55.55,0,0,1-.55.56.56.56,0,0,1,0-1.12A.55.55,0,0,1,316.55,5.77Z" fill="url(#f253ffaa-6c61-4186-a406-6dd1f73be0bb)"/></g><g style="mix-blend-mode:multiply"><path d="M426.14,53.74a1.8,1.8,0,1,1-1.8-1.8A1.8,1.8,0,0,1,426.14,53.74Z" fill="url(#bb19f67b-a7a4-45ca-98a8-b04c6ad48ded)"/></g><g style="mix-blend-mode:multiply"><path d="M520.83,143.48a.39.39,0,1,1-.77,0,.39.39,0,1,1,.77,0Z" fill="url(#bfb40f31-26c1-46ee-a2d4-2d6793fc0709)"/></g><g style="mix-blend-mode:multiply"><path d="M506.08,65.46a.95.95,0,1,1-.95-.95A.94.94,0,0,1,506.08,65.46Z" fill="url(#a48ed24d-b755-48fc-812f-aadee21fb000)"/></g><g style="mix-blend-mode:multiply"><circle cx="401.83" cy="75.61" r="1.85" fill="url(#b91366fd-f87e-462b-b1cf-c65dda1e749c)"/></g><g style="mix-blend-mode:multiply"><circle cx="520.33" cy="19.59" r="0.42" fill="url(#b47f8ccf-5716-45dc-abbe-6e0d29f95322)"/></g><g style="mix-blend-mode:multiply"><path d="M496.73,137.72a.33.33,0,1,1-.32-.33A.32.32,0,0,1,496.73,137.72Z" fill="url(#ef2b4cb6-4df3-487e-963a-6968c276da5a)"/></g><g style="mix-blend-mode:multiply"><circle cx="314.43" cy="39.94" r="1.64" fill="url(#a45ffef2-27a1-48e6-9a6b-2fc06fea09bf)"/></g><g style="mix-blend-mode:multiply"><circle cx="490.18" cy="31.08" r="0.4" fill="url(#bf0af6d8-df4b-4b64-94bd-f33c8b1e2796)"/></g><g style="mix-blend-mode:multiply"><path d="M445-.13A1.16,1.16,0,0,1,443.82,1a1.16,1.16,0,0,1-1.16-1.17,1.16,1.16,0,0,1,1.16-1.16A1.16,1.16,0,0,1,445-.13Z" fill="url(#b2175386-32bf-47bf-a415-135be6f977c8)"/></g></g></g></g></svg>